<svg viewBox="0 0 45 45" xml:space="preserve" xmlns="http://www.w3.org/2000/svg"><defs><clipPath id="a"><path d="M0 36h36V0H0v36z"/></clipPath></defs><g clip-path="url(#a)" transform="matrix(1.25 0 0 -1.25 0 45)"><path d="M33 0H4c4 0 3 9 3 9 0 2.209 1.791 15 4 15h21s4 0 4-4V3s0-3-3-3" fill="#99aab5"/><path d="M30 3c0-3 3-3 3-3H3S0 0 0 4v28a4 4 0 0 0 4 4h22a4 4 0 0 0 4-4V3z" fill="#ccd6dd"/><path d="M27 16a1 1 0 0 0-1-1h-8a1 1 0 1 0 0 2h8a1 1 0 0 0 1-1M27 20a1 1 0 0 0-1-1h-8a1 1 0 1 0 0 2h8a1 1 0 0 0 1-1M27 24a1 1 0 0 0-1-1h-8a1 1 0 1 0 0 2h8a1 1 0 0 0 1-1M27 12a1 1 0 0 0-1-1H4a1 1 0 1 0 0 2h22a1 1 0 0 0 1-1M27 8a1 1 0 0 0-1-1H4a1 1 0 1 0 0 2h22a1 1 0 0 0 1-1M27 4a1 1 0 0 0-1-1H4a1 1 0 1 0 0 2h22a1 1 0 0 0 1-1M25 27s2 0 2 2v2s0 2-2 2H5s-2 0-2-2v-2s0-2 2-2h20z" fill="#99aab5"/><path d="M13 15s2 0 2 2v6s0 2-2 2H5s-2 0-2-2v-6s0-2 2-2h8z" fill="#55acee"/></g></svg>